<svg xmlns="http://www.w3.org/2000/svg" width="20" height="20" viewBox="0 0 20 20">
  <defs>
    <style>
      .cls-1 {
        fill-rule: evenodd;
      }
    </style>
  </defs>
  <path class="cls-1" d="M16.311,10.9H3.621a0.59,0.59,0,0,0,0,1.176h12.69a0.577,0.577,0,0,0,.575-0.588A0.557,0.557,0,0,0,16.311,10.9Zm-4.636,4.152H3.621a0.59,0.59,0,0,0,0,1.176h8.054A0.588,0.588,0,0,0,11.675,15.052Zm6.4-12.284H15.838V1.661A1.643,1.643,0,0,0,14.213,0a1.622,1.622,0,0,0-1.624,1.661V2.768H7.377V1.661a1.625,1.625,0,1,0-3.249,0V2.768H1.9A1.913,1.913,0,0,0,0,4.705V18.027A1.944,1.944,0,0,0,1.9,20H18.071A1.95,1.95,0,0,0,20,18.027V4.705A1.964,1.964,0,0,0,18.071,2.768ZM13.706,1.661a0.508,0.508,0,1,1,1.015,0V4.014a0.508,0.508,0,1,1-1.015,0V1.661Zm-7.953-.52a0.527,0.527,0,0,1,.508.52v1.7h0V4.014a0.527,0.527,0,0,1-.508.519h0a0.527,0.527,0,0,1-.508-0.519V3.356h0v-1.7A0.552,0.552,0,0,1,5.753,1.142ZM1.9,3.91H4.129V3.979A1.644,1.644,0,0,0,5.753,5.641,1.622,1.622,0,0,0,7.377,3.979V3.91h5.212V3.979a1.644,1.644,0,0,0,1.624,1.662,1.622,1.622,0,0,0,1.624-1.662V3.91h2.234a0.8,0.8,0,0,1,.778.83V7.128H1.117V4.74A0.8,0.8,0,0,1,1.9,3.91ZM18.071,18.857H1.9a0.826,0.826,0,0,1-.812-0.795V8.235H18.816v9.827A0.746,0.746,0,0,1,18.071,18.857Z"/>
</svg>
